<?xml version="1.0" standalone="no"?>
<!DOCTYPE svg PUBLIC "-//W3C//DTD SVG 20010904//EN"
 "http://www.w3.org/TR/2001/REC-SVG-20010904/DTD/svg10.dtd">
<svg version="1.0" xmlns="http://www.w3.org/2000/svg"
 width="300.000000pt" height="300.000000pt" viewBox="0 0 300.000000 300.000000"
 preserveAspectRatio="xMidYMid meet">

<g transform="translate(0.000000,300.000000) scale(0.100000,-0.100000)"
fill="#000000" stroke="none">
<path d="M1399 2256 c-52 -14 -121 -52 -162 -90 -28 -26 -29 -26 -198 -26
-156 0 -171 -2 -189 -20 -24 -24 -26 -57 -4 -88 14 -21 22 -22 150 -22 l134 0
-6 -27 c-3 -16 -7 -34 -10 -40 -2 -10 -50 -13 -192 -13 -170 0 -191 -2 -205
-18 -21 -23 -22 -61 -1 -90 13 -19 24 -22 90 -22 l74 0 0 -28 c0 -15 7 -38 16
-50 13 -19 24 -22 77 -22 l62 0 0 -35 0 -35 -141 0 c-128 0 -144 -2 -168 -21
-30 -24 -34 -58 -8 -88 17 -21 20 -21 560 -22 606 -2 577 -5 575 66 l-1 35
149 0 c138 0 151 2 170 21 16 16 20 28 15 53 -9 43 -31 56 -96 56 l-56 0 0 36
c0 47 -23 64 -88 64 l-51 0 40 35 40 34 135 1 c159 0 180 8 180 69 0 20 -5 42
-12 49 -8 8 -62 12 -178 12 -118 0 -171 4 -182 13 -8 6 -50 58 -93 115 -42 56
-83 102 -91 102 -7 0 -24 -5 -37 -11 -19 -9 -40 -7 -89 5 -75 19 -145 20 -209
2z m434 -152 c84 -108 107 -147 107 -183 0 -10 -31 -42 -71 -74 l-71 -57 -72
6 c-41 4 -88 2 -110 -4 -29 -9 -43 -8 -53 0 -20 16 1 35 56 51 75 21 74 32
-17 148 -76 97 -92 128 -67 132 6 0 34 -29 64 -66 47 -59 81 -84 81 -58 0 4
-27 43 -60 84 -33 42 -60 83 -60 92 0 33 30 11 89 -65 34 -44 66 -80 71 -80
24 0 15 24 -30 81 -47 60 -63 99 -40 99 5 0 33 -29 62 -65 48 -60 78 -81 78
-53 0 6 -19 36 -42 65 -33 44 -39 56 -27 63 7 5 17 6 20 2 3 -4 45 -57 92
-118z m-655 -1 c-2 -5 -10 -20 -18 -36 l-13 -28 -136 3 c-135 3 -136 3 -139
27 -2 13 2 28 10 32 16 11 301 12 296 2z m1070 -112 c8 -5 12 -17 10 -27 -3
-17 -15 -19 -143 -22 l-140 -3 -12 31 -11 30 141 0 c78 0 148 -4 155 -9z
m-1138 -120 l0 -29 -174 -7 c-96 -4 -179 -4 -185 0 -15 9 -14 52 2 58 6 3 90
6 185 6 l172 1 0 -29z m424 20 c8 -13 -3 -38 -19 -45 -20 -7 -49 18 -42 38 7
17 52 22 61 7z m451 -105 c11 -8 16 -19 12 -30 -5 -12 -20 -16 -67 -16 -62 0
-69 6 -54 44 8 20 82 22 109 2z m-860 -17 c4 -11 5 -23 2 -25 -9 -9 -154 -17
-181 -10 -19 5 -26 13 -26 31 0 25 0 25 99 25 92 0 100 -2 106 -21z m1009 -75
c9 -3 16 -16 16 -29 0 -13 -7 -26 -16 -29 -23 -9 -324 -7 -324 2 0 4 8 17 18
29 14 18 29 23 87 26 140 7 204 7 219 1z m-960 -29 c9 -13 16 -27 16 -30 0 -7
-85 -6 -104 1 -9 3 -16 17 -16 30 0 22 4 24 44 24 35 0 47 -5 60 -25z m105
-105 l44 -30 -287 0 c-246 0 -287 2 -292 15 -4 8 -4 22 0 30 5 13 41 15 248
15 l243 0 44 -30z m536 0 c0 -24 -3 -25 -70 -28 l-69 -3 39 30 c51 39 100 39
100 1z"/>
<path d="M455 1218 c-4 -15 -35 -190 -35 -201 0 -5 12 -7 28 -5 22 2 28 9 30
33 2 17 5 36 8 44 7 22 31 -5 38 -44 6 -31 11 -35 36 -35 34 0 34 0 19 50 -10
32 -9 42 5 61 21 31 21 95 0 103 -30 11 -124 7 -129 -6z m83 -37 c23 -14 10
-46 -21 -49 -30 -4 -31 -3 -17 32 10 28 17 31 38 17z"/>
<path d="M660 1218 c-1 -7 -9 -57 -19 -110 l-18 -98 28 0 c24 0 29 4 29 24 0
42 10 56 42 56 30 0 30 -1 24 -40 -6 -38 -5 -40 19 -40 27 0 27 0 45 110 6 36
14 75 17 88 4 18 1 22 -20 22 -26 0 -28 -4 -41 -62 -5 -23 -12 -28 -37 -28
-30 0 -30 0 -23 45 6 44 5 45 -20 45 -14 0 -26 -6 -26 -12z"/>
<path d="M885 1161 c13 -38 22 -71 21 -73 -2 -2 -6 -20 -9 -41 -6 -37 -5 -38
21 -35 23 3 28 9 34 45 4 27 25 68 53 108 46 64 47 65 21 65 -19 0 -33 -11
-52 -40 -15 -22 -30 -38 -34 -35 -4 3 -11 21 -14 40 -6 30 -11 35 -36 35 l-29
0 24 -69z"/>
<path d="M1060 1210 c0 -15 7 -20 29 -20 38 0 41 -6 30 -65 -22 -125 -22 -115
5 -115 27 0 31 8 42 85 11 82 19 95 58 95 25 0 35 5 39 20 5 19 0 20 -99 20
-97 0 -104 -1 -104 -20z"/>
<path d="M1295 1218 c-4 -15 -35 -189 -35 -200 0 -5 11 -8 25 -8 21 0 26 6 31
40 6 37 9 40 39 40 33 0 33 0 28 -40 -5 -37 -4 -40 19 -40 23 0 25 5 41 98 22
122 22 122 -7 122 -20 0 -25 -6 -30 -45 -7 -43 -9 -45 -41 -45 -23 0 -33 4
-31 13 3 6 7 27 10 45 5 29 3 32 -20 32 -13 0 -26 -6 -29 -12z"/>
<path d="M1497 1128 c-21 -126 -22 -118 7 -118 22 0 26 6 32 48 10 69 21 84
29 39 9 -49 36 -49 70 1 l27 37 -7 -45 c-4 -25 -9 -53 -12 -63 -4 -15 0 -18
23 -15 27 3 29 6 46 98 22 124 23 120 -9 120 -22 0 -34 -10 -56 -45 -16 -25
-33 -47 -37 -50 -5 -3 -15 16 -23 42 -12 42 -18 48 -43 51 l-30 3 -17 -103z"/>
<path d="M1855 1218 c-4 -15 -35 -189 -35 -200 0 -15 125 -9 147 7 24 17 36
64 21 83 -8 9 -8 16 0 24 18 18 15 85 -4 92 -30 11 -124 7 -129 -6z m84 -37
c21 -14 5 -41 -24 -41 -15 0 -24 3 -22 8 2 4 7 15 10 25 7 19 15 21 36 8z m1
-101 c0 -16 -7 -20 -30 -20 -23 0 -30 4 -30 20 0 16 7 20 30 20 23 0 30 -4 30
-20z"/>
<path d="M2060 1218 c-1 -7 -9 -57 -19 -110 l-18 -98 78 0 c78 0 79 0 79 25 0
23 -3 25 -50 25 -47 0 -50 1 -40 19 7 13 23 21 47 23 27 2 39 8 41 21 3 14 -4
17 -38 17 -37 0 -41 2 -38 23 3 19 10 22 56 25 44 3 52 6 52 23 0 17 -7 19
-75 19 -53 0 -75 -4 -75 -12z"/>
<path d="M2266 1188 c-9 -24 -27 -73 -40 -110 l-25 -68 29 0 c23 0 31 5 36 25
5 19 13 25 35 25 24 0 29 -4 29 -25 0 -20 5 -25 25 -25 l25 0 0 110 0 110 -49
0 c-49 0 -49 0 -65 -42z m64 -48 c0 -33 -3 -40 -20 -40 -23 0 -24 5 -9 49 15
43 29 39 29 -9z"/>
<path d="M2437 1223 c-18 -18 -5 -33 29 -33 l37 0 -7 -47 c-4 -27 -9 -67 -13
-90 -5 -41 -4 -43 19 -43 24 0 26 5 38 79 6 43 15 83 19 89 3 6 22 12 41 14
24 2 36 9 38 21 3 15 -7 17 -96 17 -54 0 -102 -3 -105 -7z"/>
</g>
</svg>
